# Blender v2.78 (sub 0) OBJ File: ''
# www.blender.org
mtllib Base Component 002.mtl
o Cube_Cube.002
v -0.571506 -0.433315 -3.704416
v -0.571506 -0.334545 -3.605646
v -0.634140 -0.334545 -3.704416
v -0.571506 0.422767 -3.605646
v -0.571506 0.521538 -3.704416
v -0.634140 0.422767 -3.704416
v -0.571506 -0.433315 -5.532409
v -0.634140 -0.334545 -5.444857
v -0.571506 -0.351569 -5.575743
v -0.571506 0.521538 -4.884871
v -0.571506 0.439792 -5.039078
v -0.634140 0.422767 -4.931283
v 0.571506 -0.433315 -3.704416
v 0.634140 -0.334545 -3.704416
v 0.571506 -0.334545 -3.605646
v 0.571506 0.521538 -3.704416
v 0.571506 0.422767 -3.605646
v 0.634140 0.422767 -3.704416
v 0.571506 -0.433315 -5.532409
v 0.571506 -0.351569 -5.575743
v 0.634140 -0.334545 -5.444857
v 0.571506 0.521538 -4.884871
v 0.634140 0.422767 -4.931283
v 0.571506 0.439792 -5.039078
vt 0.2207 0.9996
vt 0.0004 0.9996
vt 0.0004 0.6670
vt 0.2207 0.6670
vt 0.7534 0.5068
vt 0.5330 0.3574
vt 0.5330 0.0004
vt 0.7534 0.0004
vt 0.3439 0.3337
vt 0.3439 0.6663
vt 0.0004 0.6663
vt 0.0004 0.3337
vt 0.7541 0.0004
vt 0.9745 0.0004
vt 0.9745 0.3574
vt 0.7541 0.5068
vt 0.8656 0.5075
vt 0.8656 0.7858
vt 0.5330 0.7858
vt 0.5330 0.5075
vt 0.4087 0.6670
vt 0.4087 0.7077
vt 0.3814 0.6873
vt 0.4134 0.7634
vt 0.4460 0.7391
vt 0.4460 0.7731
vt 0.4070 0.7084
vt 0.4070 0.7509
vt 0.3814 0.7169
vt 0.4095 0.7023
vt 0.4460 0.6670
vt 0.4460 0.7036
vt 0.4468 0.7141
vt 0.4794 0.7044
vt 0.4794 0.7384
vt 0.4134 0.7286
vt 0.4460 0.7044
vt 0.4460 0.7384
vt 0.4871 0.7391
vt 0.4871 0.7660
vt 0.4468 0.7526
vt 0.4833 0.6670
vt 0.4833 0.7036
vt 0.4468 0.7023
vt 0.4983 0.8656
vt 0.4983 0.3337
vt 0.5323 0.3337
vt 0.5323 0.8402
vt 0.3250 0.6670
vt 0.3250 0.8874
vt 0.2910 0.8874
vt 0.2910 0.6670
vt 0.8900 0.9004
vt 0.5465 0.9004
vt 0.5330 0.8664
vt 0.8900 0.8664
vt 0.9418 0.5210
vt 0.9418 0.7993
vt 0.9077 0.7738
vt 0.9077 0.5075
vt 0.5330 0.9359
vt 0.8656 0.9359
vt 0.8656 0.9628
vt 0.5330 0.9628
vt 0.4975 0.3337
vt 0.4975 0.6663
vt 0.4468 0.6663
vt 0.4468 0.3337
vt 0.2215 0.9588
vt 0.2215 0.6925
vt 0.2555 0.6670
vt 0.2555 0.9453
vt 0.3786 0.3337
vt 0.3786 0.8656
vt 0.3446 0.8402
vt 0.3446 0.3337
vt 0.5465 0.9011
vt 0.8900 0.9011
vt 0.8900 0.9351
vt 0.5330 0.9351
vt 0.2902 0.6670
vt 0.2902 0.8874
vt 0.2562 0.8874
vt 0.2562 0.6670
vt 0.9070 0.5075
vt 0.9070 0.8402
vt 0.8664 0.8402
vt 0.8664 0.5075
vt 0.3793 0.6663
vt 0.3793 0.3337
vt 0.4200 0.3337
vt 0.4200 0.6663
vt 0.0004 0.3330
vt 0.0004 0.0004
vt 0.5323 0.0004
vt 0.5323 0.3330
vn 0.0000 0.0000 1.0000
vn 1.0000 0.0000 0.0000
vn 0.0000 1.0000 0.0000
vn -1.0000 0.0000 0.0000
vn 0.0000 0.5613 -0.8276
vn -0.7445 -0.4721 0.4721
vn -0.7445 0.4721 0.4721
vn -0.8920 -0.2117 -0.3993
vn -0.7229 0.6105 -0.3236
vn 0.7445 -0.4721 0.4721
vn 0.7445 0.4721 0.4721
vn 0.8920 -0.2117 -0.3993
vn 0.7229 0.6105 -0.3236
vn -0.8445 -0.5355 0.0000
vn -0.8445 0.0000 0.5355
vn -0.8445 0.5355 0.0000
vn -0.8445 0.3006 -0.4432
vn 0.0000 -0.4684 -0.8835
vn 0.0000 0.8835 -0.4684
vn 0.8445 0.3006 -0.4432
vn 0.8445 -0.5355 0.0000
vn 0.8445 0.5355 0.0000
vn 0.8445 0.0000 0.5355
vn 0.0000 -0.7071 0.7071
vn 0.0000 0.7071 0.7071
vn 0.0000 -1.0000 0.0000
usemtl None
s off
f 15/1/1 17/2/1 4/3/1 2/4/1
f 21/5/2 23/6/2 18/7/2 14/8/2
f 22/9/3 10/10/3 5/11/3 16/12/3
f 3/13/4 6/14/4 12/15/4 8/16/4
f 9/17/5 11/18/5 24/19/5 20/20/5
f 1/21/6 2/22/6 3/23/6
f 4/24/7 5/25/7 6/26/7
f 7/27/8 8/28/8 9/29/8
f 10/30/9 11/31/9 12/32/9
f 13/33/10 14/34/10 15/35/10
f 16/36/11 17/37/11 18/38/11
f 19/39/12 20/40/12 21/41/12
f 22/42/13 23/43/13 24/44/13
f 7/45/14 1/46/14 3/47/14 8/48/14
f 2/49/15 4/50/15 6/51/15 3/52/15
f 5/53/16 10/54/16 12/55/16 6/56/16
f 11/57/17 9/58/17 8/59/17 12/60/17
f 19/61/18 7/62/18 9/63/18 20/64/18
f 10/65/19 22/66/19 24/67/19 11/68/19
f 23/69/20 21/70/20 20/71/20 24/72/20
f 13/73/21 19/74/21 21/75/21 14/76/21
f 22/77/22 16/78/22 18/79/22 23/80/22
f 17/81/23 15/82/23 14/83/23 18/84/23
f 1/85/24 13/86/24 15/87/24 2/88/24
f 16/89/25 5/90/25 4/91/25 17/92/25
f 7/93/26 19/94/26 13/95/26 1/96/26
