# Blender v2.78 (sub 0) OBJ File: 'UI.blend'
# www.blender.org
mtllib UI.mtl
o UI_立方体
v 3.420899 -1.500000 -0.436913
v 3.420899 -1.420899 -0.516014
v 3.500000 -1.420899 -0.436913
v 3.420899 1.420899 -0.516014
v 3.420899 1.500000 -0.436913
v 3.500000 1.420899 -0.436913
v 3.420899 -1.500000 0.436913
v 3.500000 -1.420899 0.436913
v 3.420899 -1.420899 0.516014
v 3.420899 1.500000 0.436913
v 3.420899 1.420899 0.516014
v 3.500000 1.420899 0.436913
v -3.420899 -1.500000 -0.436913
v -3.500000 -1.420899 -0.436913
v -3.420899 -1.420899 -0.516014
v -3.420899 1.500000 -0.436913
v -3.420899 1.420899 -0.516014
v -3.500000 1.420899 -0.436913
v -3.420899 -1.500000 0.436913
v -3.420899 -1.420899 0.516014
v -3.500000 -1.420899 0.436913
v -3.420899 1.500000 0.436913
v -3.500000 1.420899 0.436913
v -3.420899 1.420899 0.516014
vt 0.4092 0.9749
vt 0.0080 0.9749
vt 0.0080 0.0088
vt 0.4092 0.0088
vt 0.6577 0.8119
vt 0.6577 0.4106
vt 0.7811 0.4106
vt 0.7811 0.8119
vt 0.5338 0.9749
vt 0.5338 0.0088
vt 0.6572 0.0088
vt 0.6572 0.9749
vt 0.6577 0.4100
vt 0.6577 0.0088
vt 0.7811 0.0088
vt 0.7811 0.4100
vt 0.6809 0.9184
vt 0.6809 0.8882
vt 0.7537 0.8882
vt 0.7537 0.9184
vt 0.7290 0.8531
vt 0.7427 0.8452
vt 0.7427 0.8610
vt 0.7005 0.8531
vt 0.7142 0.8452
vt 0.7142 0.8610
vt 0.7284 0.8452
vt 0.7284 0.8610
vt 0.7148 0.8531
vt 0.7712 0.8452
vt 0.7712 0.8610
vt 0.7575 0.8531
vt 0.6999 0.8452
vt 0.6999 0.8610
vt 0.6862 0.8531
vt 0.6720 0.8531
vt 0.6857 0.8452
vt 0.6857 0.8610
vt 0.6714 0.8452
vt 0.6714 0.8610
vt 0.6577 0.8531
vt 0.7569 0.8610
vt 0.7433 0.8531
vt 0.7569 0.8452
vt 0.8978 0.0088
vt 0.8978 0.1322
vt 0.8820 0.1322
vt 0.8820 0.0088
vt 0.8493 0.8119
vt 0.8493 0.4106
vt 0.8651 0.4106
vt 0.8651 0.8119
vt 0.7811 0.8446
vt 0.6577 0.8446
vt 0.6577 0.8288
vt 0.7811 0.8288
vt 0.8493 0.4100
vt 0.8493 0.0088
vt 0.8651 0.0088
vt 0.8651 0.4100
vt 0.7817 0.9438
vt 0.7817 0.0088
vt 0.7980 0.0088
vt 0.7980 0.9438
vt 0.7986 0.9438
vt 0.7986 0.0088
vt 0.8149 0.0088
vt 0.8149 0.9438
vt 0.0080 0.9754
vt 0.4092 0.9754
vt 0.4092 0.9912
vt 0.0080 0.9912
vt 0.7811 0.8283
vt 0.6577 0.8283
vt 0.6577 0.8125
vt 0.7811 0.8125
vt 0.8820 0.2561
vt 0.8820 0.1327
vt 0.8978 0.1327
vt 0.8978 0.2561
vt 0.8657 0.4100
vt 0.8657 0.0088
vt 0.8814 0.0088
vt 0.8814 0.4100
vt 0.8487 0.0088
vt 0.8487 0.9438
vt 0.8324 0.9438
vt 0.8324 0.0088
vt 0.8155 0.9438
vt 0.8155 0.0088
vt 0.8318 0.0088
vt 0.8318 0.9438
vt 0.5332 0.0088
vt 0.5332 0.9749
vt 0.4098 0.9749
vt 0.4098 0.0088
vn 0.0000 0.0000 -1.0000
vn -1.0000 0.0000 0.0000
vn 0.0000 1.0000 0.0000
vn 1.0000 0.0000 0.0000
vn 0.0000 0.0000 1.0000
vn 0.5773 -0.5773 -0.5774
vn 0.5773 0.5773 -0.5774
vn 0.5773 -0.5773 0.5774
vn 0.5773 0.5773 0.5774
vn -0.5773 -0.5773 -0.5774
vn -0.5773 0.5773 -0.5774
vn -0.5773 -0.5773 0.5774
vn -0.5773 0.5773 0.5774
vn 0.7071 -0.7071 0.0000
vn 0.7071 0.0000 -0.7071
vn 0.7071 0.7071 0.0000
vn 0.7071 0.0000 0.7071
vn 0.0000 -0.7071 0.7071
vn 0.0000 0.7071 0.7071
vn -0.7071 0.0000 0.7071
vn -0.7071 -0.7071 0.0000
vn -0.7071 0.7071 0.0000
vn -0.7071 0.0000 -0.7071
vn 0.0000 -0.7071 -0.7071
vn 0.0000 0.7071 -0.7071
vn 0.0000 -1.0000 0.0000
usemtl None
s off
f 15/1/1 17/2/1 4/3/1 2/4/1
f 21/5/2 23/6/2 18/7/2 14/8/2
f 22/9/3 10/10/3 5/11/3 16/12/3
f 3/13/4 6/14/4 12/15/4 8/16/4
f 9/17/5 11/18/5 24/19/5 20/20/5
f 1/21/6 2/22/6 3/23/6
f 4/24/7 5/25/7 6/26/7
f 7/27/8 8/28/8 9/29/8
f 10/30/9 11/31/9 12/32/9
f 13/33/10 14/34/10 15/35/10
f 16/36/11 17/37/11 18/38/11
f 19/39/12 20/40/12 21/41/12
f 22/42/13 23/43/13 24/44/13
f 7/45/14 1/46/14 3/47/14 8/48/14
f 2/49/15 4/50/15 6/51/15 3/52/15
f 5/53/16 10/54/16 12/55/16 6/56/16
f 11/57/17 9/58/17 8/59/17 12/60/17
f 19/61/18 7/62/18 9/63/18 20/64/18
f 10/65/19 22/66/19 24/67/19 11/68/19
f 23/69/20 21/70/20 20/71/20 24/72/20
f 13/73/21 19/74/21 21/75/21 14/76/21
f 22/77/22 16/78/22 18/79/22 23/80/22
f 17/81/23 15/82/23 14/83/23 18/84/23
f 1/85/24 13/86/24 15/87/24 2/88/24
f 16/89/25 5/90/25 4/91/25 17/92/25
f 7/93/26 19/94/26 13/95/26 1/96/26
